<svg xmlns="http://www.w3.org/2000/svg" width="128" height="128" class="bi bi-link" style="fill:currentColor"><rect width="128" height="128" rx="15.988" ry="15.941" style="fill:#fff;stroke-width:7.98217678"/><path d="M55.95 48.075H43.204a16.244 15.946 0 0 0 0 31.893h16.244a16.244 15.946 0 0 0 15.323-21.262h-4.494c-.466 0-.92.053-1.354.165a10.83 10.63 0 0 1-9.475 15.782H43.204a10.83 10.63 0 1 1 0-21.262h8.312a21.422 21.422 0 0 1 4.44-5.316Z"/><path d="M70.277 48.075a16.244 15.946 0 0 0-15.323 21.262h5.945a10.83 10.63 0 0 1 9.378-15.946h16.244a10.83 10.63 0 1 1 0 21.262h-8.312a21.766 21.368 0 0 1-4.44 5.315h12.752a16.244 15.946 0 1 0 0-31.893z"/><path style="fill-rule:evenodd;stroke-width:5.33333302" d="M12 113.333A2.667 2.667 0 0 0 14.667 116h19.692c3.556 0 3.556-5.333 0-5.333H21.104l20.529-20.524c2.517-2.517-1.259-6.293-3.776-3.776l-20.524 20.529V92.429c0-3.555-5.333-3.555-5.333 0zM116.063 113.333a2.667 2.667 0 0 1-2.667 2.667H93.704c-3.556 0-3.556-5.333 0-5.333h13.255L86.43 90.143c-2.517-2.517 1.259-6.293 3.776-3.776l20.523 20.529V92.429c0-3.555 5.334-3.555 5.334 0zM12 14.604a2.667 2.667 0 0 1 2.667-2.667h19.692c3.556 0 3.556 5.334 0 5.334H21.104l20.529 20.523c2.517 2.517-1.259 6.293-3.776 3.776L17.333 21.04v14.467c0 3.555-5.333 3.555-5.333 0zM116.063 14.604a2.667 2.667 0 0 0-2.667-2.667H93.704c-3.556 0-3.556 5.334 0 5.334h13.255L86.43 37.794c-2.517 2.517 1.259 6.293 3.776 3.776L110.73 21.04v14.467c0 3.555 5.334 3.555 5.334 0z"/></svg>